<?xml version="1.0" encoding="UTF-8" standalone="no"?>
<!-- Created with Inkscape (http://www.inkscape.org/) -->

<svg
   width="463.62473"
   height="463.62473"
   viewBox="0 0 463.62473 463.62472"
   version="1.1"
   id="svg1"
   xml:space="preserve"
   sodipodi:docname="mail.svg"
   inkscape:version="1.3 (0e150ed6c4, 2023-07-21)"
   xmlns:inkscape="http://www.inkscape.org/namespaces/inkscape"
   xmlns:sodipodi="http://sodipodi.sourceforge.net/DTD/sodipodi-0.dtd"
   xmlns="http://www.w3.org/2000/svg"
   xmlns:svg="http://www.w3.org/2000/svg"><sodipodi:namedview
   id="namedview1"
   pagecolor="#ffffff"
   bordercolor="#111111"
   borderopacity="1"
   inkscape:showpageshadow="0"
   inkscape:pageopacity="0"
   inkscape:pagecheckerboard="1"
   inkscape:deskcolor="#d1d1d1"
   inkscape:zoom="1.1151261"
   inkscape:cx="127.33986"
   inkscape:cy="320.14316"
   inkscape:window-width="1920"
   inkscape:window-height="1022"
   inkscape:window-x="0"
   inkscape:window-y="26"
   inkscape:window-maximized="1"
   inkscape:current-layer="svg1" /><defs
   id="defs1" /><g
   id="layer3"
   transform="matrix(1.0348766,0,0,1.0348766,0,-33.116051)"
   style="display:inline;opacity:1;fill:#696969"
   inkscape:export-filename="mail.svg"
   inkscape:export-xdpi="96"
   inkscape:export-ydpi="96"><path
     id="text1"
     style="font-style:normal;font-variant:normal;font-weight:normal;font-stretch:normal;font-size:142.282px;font-family:'Font Awesome 6 Free';-inkscape-font-specification:'Font Awesome 6 Free';fill:#696969;stroke:none;stroke-width:23.0131;stroke-linejoin:round;stroke-miterlimit:2.9;stroke-dashoffset:266.872"
     d="M 64,32 C 28.7,32 0,60.7 0,96 v 320 c 0,35.3 28.7,64 64,64 h 320 c 35.3,0 64,-28.7 64,-64 V 96 C 448,60.7 419.3,32 384,32 Z M 218,314.23922 64.2,214.93922 224,94.334749 383.8,214.93922 l -153.8,99.3 c -1.8,1.2 -3.9,1.8 -6,1.8 -2.1,0 -4.2,-0.6 -6,-1.8 z m 29.4,26.9 136.6,-88.2 v 125.6 c 0,17.7 -14.3,32 -32,32 H 96 c -17.7,0 -32,-14.3 -32,-32 v -125.6 l 136.6,88.2 c 7,4.5 15.1,6.9 23.4,6.9 8.3,0 16.4,-2.4 23.4,-6.9 z"
     sodipodi:nodetypes="ssssssssscccccscccssssccsc" /></g>&#10;</svg>
